<svg width="16" height="16" viewBox="0 0 16 16" fill="none" xmlns="http://www.w3.org/2000/svg">
<path fill-rule="evenodd" clip-rule="evenodd" d="M2.29249 4.26663C2.29249 3.1763 3.17636 2.29243 4.26669 2.29243C5.357 2.29243 6.24088 3.1763 6.24088 4.26663C6.24088 5.35694 5.357 6.24082 4.26669 6.24082C3.17636 6.24082 2.29249 5.35694 2.29249 4.26663ZM4.26669 1.33243C2.64617 1.33243 1.33249 2.64611 1.33249 4.26663C1.33249 5.88714 2.64617 7.20082 4.26669 7.20082C5.8872 7.20082 7.20088 5.88714 7.20088 4.26663C7.20088 2.64611 5.8872 1.33243 4.26669 1.33243ZM6.20836 11.7334L2.66664 13.6927V9.7742L6.20836 11.7334ZM2.81475 8.75903C2.3171 8.48373 1.70664 8.84366 1.70664 9.41239V14.0545C1.70664 14.6233 2.3171 14.9831 2.81475 14.7078L7.0105 12.3868C7.52415 12.1026 7.52415 11.3643 7.0105 11.0801L2.81475 8.75903ZM8.85334 9.60003C8.85334 9.18766 9.18763 8.85337 9.60001 8.85337H13.8667C14.279 8.85337 14.6133 9.18766 14.6133 9.60003V13.8667C14.6133 14.279 14.279 14.6133 13.8667 14.6133H9.60001C9.18763 14.6133 8.85334 14.279 8.85334 13.8667V9.60003ZM9.81334 9.81337V13.6533H13.6533V9.81337H9.81334ZM14.3394 2.33932C14.5268 2.15186 14.5268 1.84795 14.3394 1.66049C14.152 1.47305 13.8481 1.47305 13.6606 1.66049L11.7333 3.58777L9.80609 1.66052C9.61864 1.47307 9.31472 1.47307 9.12727 1.66052C8.93982 1.84797 8.93982 2.15189 9.12727 2.33934L11.0545 4.26658L9.12727 6.19383C8.93982 6.38128 8.93982 6.6852 9.12727 6.87265C9.31472 7.06011 9.61864 7.06011 9.80609 6.87265L11.7333 4.94541L13.6606 6.87268C13.8481 7.06013 14.152 7.06013 14.3394 6.87268C14.5268 6.68523 14.5268 6.3813 14.3394 6.19386L12.4122 4.26658L14.3394 2.33932Z" fill="#EEEEF0"/>
</svg>
